<svg width="21" height="24" viewBox="0 0 21 24" fill="none" xmlns="http://www.w3.org/2000/svg">
<path d="M17.9643 3H3.03571C1.91183 3 1 3.91183 1 5.03571V19.9643C1 21.0882 1.91183 22 3.03571 22H17.9643C19.0882 22 20 21.0882 20 19.9643V5.03571C20 3.91183 19.0882 3 17.9643 3ZM6.38616 17.9498C6.1529 18.3569 5.63125 18.4926 5.22835 18.2594C4.82121 18.0261 4.68549 17.5045 4.91875 17.1016L5.52522 16.054C6.20804 15.8462 6.76786 16.0074 7.20469 16.5375L6.38616 17.9498ZM12.277 15.6638H4.5625C4.09598 15.6638 3.71429 15.2821 3.71429 14.8156C3.71429 14.3491 4.09598 13.9674 4.5625 13.9674H6.72545L9.49911 9.16652L8.62969 7.66518C8.39643 7.25804 8.53638 6.74062 8.93929 6.50737C9.34643 6.27411 9.86384 6.41406 10.0971 6.81696L10.4746 7.47009L10.852 6.81696C11.0853 6.40982 11.6069 6.27411 12.0098 6.50737C12.417 6.74062 12.5527 7.26228 12.3194 7.66518L8.68058 13.9674H11.3143C12.171 13.9674 12.6502 14.9725 12.277 15.6638ZM16.4375 15.6638H15.2076L16.0388 17.1016C16.2721 17.5087 16.1321 18.0261 15.7292 18.2594C15.3221 18.4926 14.8047 18.3527 14.5714 17.9498C13.1761 15.5366 12.1328 13.7214 11.433 12.517C10.7248 11.2871 11.2295 10.0571 11.7342 9.64152C12.2897 10.6042 13.121 12.0462 14.2321 13.9674H16.4375C16.904 13.9674 17.2857 14.3491 17.2857 14.8156C17.2857 15.2864 16.904 15.6638 16.4375 15.6638Z" fill="white"/>
</svg>
