<svg width="24" height="24" viewBox="0 0 24 24" fill="none" xmlns="http://www.w3.org/2000/svg">
<path d="M3.63696 3.434L12.377 12.005L3.70196 20.655C3.56003 20.4702 3.44986 20.263 3.37596 20.042C3.33773 19.7918 3.33773 19.5372 3.37596 19.287V4.567C3.34996 4.172 3.44096 3.777 3.63596 3.434M16.142 8.267L13.289 11.093L4.65296 2.6C4.93296 2.503 5.23296 2.476 5.52596 2.522C5.98596 2.648 6.42496 2.842 6.82796 3.095L14.644 7.42C15.152 7.693 15.647 7.98 16.142 8.267ZM13.29 12.93L16.129 15.718L14.071 16.864L7.79196 20.354C7.27196 20.641 6.74996 20.915 6.24196 21.228C6.02458 21.3633 5.78084 21.4507 5.527 21.4844C5.27316 21.518 5.01507 21.4971 4.76996 21.423L13.29 12.93ZM20.65 12.005C20.6572 12.3547 20.5689 12.6997 20.3944 13.0028C20.2199 13.306 19.966 13.5557 19.66 13.725L17.314 15.027L14.227 12.005L17.327 8.931C18.122 9.374 18.904 9.817 19.685 10.234C19.9964 10.4081 20.2523 10.6668 20.4229 10.9802C20.5935 11.2936 20.6728 11.6489 20.65 12.005Z" fill="white"/>
</svg>
