<svg width="135" height="40" viewBox="0 0 135 40" fill="none" xmlns="http://www.w3.org/2000/svg">
<g clip-path="url(#clip0_186_466)">
<path d="M130 0H5C2.23858 0 0 2.23858 0 5V35C0 37.7614 2.23858 40 5 40H130C132.761 40 135 37.7614 135 35V5C135 2.23858 132.761 0 130 0Z" fill="black"/>
<path d="M130 0.8C132.316 0.8 134.2 2.684 134.2 5V35C134.2 37.316 132.316 39.2 130 39.2H5C2.684 39.2 0.8 37.316 0.8 35V5C0.8 2.684 2.684 0.8 5 0.8H130ZM130 0H5C2.25 0 0 2.25 0 5V35C0 37.75 2.25 40 5 40H130C132.75 40 135 37.75 135 35V5C135 2.25 132.75 0 130 0Z" fill="#A6A6A6"/>
<path d="M47.418 10.2432C47.418 11.0812 47.1701 11.7482 46.673 12.2462C46.109 12.8382 45.3731 13.1342 44.4691 13.1342C43.6031 13.1342 42.8671 12.8342 42.2611 12.2342C41.6551 11.6332 41.3521 10.8892 41.3521 10.0012C41.3521 9.11319 41.6551 8.36819 42.2611 7.76819C42.8661 7.16719 43.6031 6.86719 44.4691 6.86719C44.8991 6.86719 45.31 6.95119 45.701 7.11819C46.092 7.28619 46.405 7.50919 46.639 7.78819L46.112 8.31619C45.715 7.84119 45.1681 7.60419 44.4691 7.60419C43.8371 7.60419 43.2911 7.82619 42.8301 8.27019C42.3691 8.71419 42.139 9.29119 42.139 10.0002C42.139 10.7092 42.3691 11.2862 42.8301 11.7302C43.2911 12.1742 43.8371 12.3962 44.4691 12.3962C45.1391 12.3962 45.6981 12.1732 46.1451 11.7262C46.4351 11.4352 46.603 11.0302 46.648 10.5112H44.4691V9.79019H47.376C47.404 9.94719 47.418 10.0972 47.418 10.2432Z" fill="white" stroke="white" stroke-width="0.2" stroke-miterlimit="10"/>
<path d="M52.028 7.73702H49.296V9.63902H51.76V10.36H49.296V12.262H52.028V12.999H48.525V6.99902H52.028V7.73702Z" fill="white" stroke="white" stroke-width="0.2" stroke-miterlimit="10"/>
<path d="M55.279 13H54.508V7.737H52.832V7H56.955V7.737H55.279V13Z" fill="white" stroke="white" stroke-width="0.2" stroke-miterlimit="10"/>
<path d="M59.9381 13V7H60.7081V13H59.9381Z" fill="white" stroke="white" stroke-width="0.2" stroke-miterlimit="10"/>
<path d="M64.128 13H63.357V7.737H61.681V7H65.804V7.737H64.128V13Z" fill="white" stroke="white" stroke-width="0.2" stroke-miterlimit="10"/>
<path d="M73.6091 12.2252C73.0191 12.8322 72.286 13.1342 71.409 13.1342C70.5321 13.1342 69.7991 12.8312 69.2101 12.2252C68.6201 11.6192 68.326 10.8772 68.326 10.0002C68.326 9.12323 68.6201 8.38123 69.2101 7.77523C69.7991 7.16823 70.5321 6.86523 71.409 6.86523C72.281 6.86523 73.0121 7.17023 73.6051 7.77923C74.1971 8.38823 74.493 9.12823 74.493 10.0002C74.493 10.8772 74.1981 11.6192 73.6091 12.2252ZM69.7791 11.7222C70.2231 12.1722 70.766 12.3962 71.409 12.3962C72.0521 12.3962 72.5951 12.1712 73.0391 11.7222C73.4831 11.2722 73.7061 10.6982 73.7061 10.0002C73.7061 9.30223 73.4831 8.72723 73.0391 8.27823C72.5961 7.82823 72.0521 7.60423 71.409 7.60423C70.766 7.60423 70.2231 7.82923 69.7791 8.27823C69.3361 8.72823 69.1131 9.30223 69.1131 10.0002C69.1131 10.6982 69.3361 11.2732 69.7791 11.7222Z" fill="white" stroke="white" stroke-width="0.2" stroke-miterlimit="10"/>
<path d="M75.5751 13V7H76.5141L79.4301 11.667H79.4631L79.4301 10.511V7H80.2011V13H79.3961L76.3451 8.106H76.3121L76.3451 9.262V12.999H75.5741L75.5751 13Z" fill="white" stroke="white" stroke-width="0.2" stroke-miterlimit="10"/>
<path d="M68.136 21.7519C65.784 21.7519 63.867 23.5399 63.867 26.0049C63.867 28.4539 65.784 30.2579 68.136 30.2579C70.488 30.2579 72.405 28.4539 72.405 26.0049C72.405 23.5399 70.488 21.7519 68.136 21.7519ZM68.136 28.5819C66.847 28.5819 65.736 27.5189 65.736 26.0039C65.736 24.4729 66.848 23.4258 68.136 23.4258C69.424 23.4258 70.536 24.4729 70.536 26.0039C70.536 27.5179 69.424 28.5819 68.136 28.5819ZM58.823 21.7519C56.471 21.7519 54.554 23.5399 54.554 26.0049C54.554 28.4539 56.471 30.2579 58.823 30.2579C61.175 30.2579 63.092 28.4539 63.092 26.0049C63.092 23.5399 61.175 21.7519 58.823 21.7519ZM58.823 28.5819C57.534 28.5819 56.422 27.5189 56.422 26.0039C56.422 24.4729 57.534 23.4258 58.823 23.4258C60.112 23.4258 61.223 24.4729 61.223 26.0039C61.223 27.5179 60.111 28.5819 58.823 28.5819ZM47.744 23.0569V24.8609H52.062C51.933 25.8759 51.595 26.6169 51.079 27.1329C50.451 27.7609 49.468 28.4538 47.744 28.4538C45.086 28.4538 43.008 26.3109 43.008 23.6529C43.008 20.9949 45.086 18.8519 47.744 18.8519C49.178 18.8519 50.225 19.4159 50.998 20.1409L52.271 18.8679C51.192 17.8369 49.758 17.0479 47.744 17.0479C44.103 17.0479 41.042 20.0119 41.042 23.6529C41.042 27.2939 44.103 30.2579 47.744 30.2579C49.71 30.2579 51.192 29.6138 52.352 28.4049C53.544 27.2128 53.915 25.5368 53.915 24.1838C53.915 23.7648 53.883 23.3789 53.818 23.0559L47.744 23.0569ZM93.052 24.4579C92.698 23.5079 91.618 21.7509 89.411 21.7509C87.22 21.7509 85.4 23.4749 85.4 26.0039C85.4 28.3879 87.204 30.2569 89.621 30.2569C91.57 30.2569 92.698 29.0649 93.165 28.3719L91.715 27.4049C91.232 28.1138 90.571 28.5809 89.621 28.5809C88.671 28.5809 87.994 28.1459 87.559 27.2919L93.246 24.9398L93.053 24.4569L93.052 24.4579ZM87.252 25.8759C87.204 24.2329 88.525 23.3949 89.475 23.3949C90.216 23.3949 90.844 23.7649 91.054 24.2969L87.252 25.8759ZM82.629 29.9999H84.498V17.4979H82.629V29.9999ZM79.567 22.7019H79.503C79.084 22.2029 78.279 21.7509 77.264 21.7509C75.137 21.7509 73.188 23.6199 73.188 26.0199C73.188 28.4039 75.137 30.2569 77.264 30.2569C78.279 30.2569 79.084 29.8059 79.503 29.2899H79.567V29.9019C79.567 31.5289 78.697 32.3988 77.295 32.3988C76.151 32.3988 75.442 31.5768 75.152 30.8848L73.525 31.5619C73.992 32.6899 75.233 34.0749 77.295 34.0749C79.486 34.0749 81.339 32.7859 81.339 29.6449V22.0089H79.567V22.7019ZM77.425 28.5819C76.136 28.5819 75.057 27.5029 75.057 26.0199C75.057 24.5219 76.136 23.4258 77.425 23.4258C78.698 23.4258 79.697 24.5219 79.697 26.0199C79.697 27.5019 78.698 28.5819 77.425 28.5819ZM101.806 17.4989H97.335V29.9999H99.201V25.2639H101.806C103.874 25.2639 105.907 23.7669 105.907 21.3809C105.907 18.9949 103.874 17.4989 101.806 17.4989ZM101.854 23.5238H99.2V19.2389H101.854C103.249 19.2389 104.041 20.3939 104.041 21.3819C104.041 22.3509 103.249 23.5249 101.854 23.5249V23.5238ZM113.386 21.7289C112.035 21.7289 110.636 22.3239 110.057 23.6429L111.714 24.3349C112.068 23.6429 112.727 23.4179 113.419 23.4179C114.384 23.4179 115.365 23.9969 115.381 25.0259V25.1549C115.043 24.9619 114.32 24.6719 113.435 24.6719C111.65 24.6719 109.832 25.6529 109.832 27.4869C109.832 29.1599 111.295 30.2369 112.936 30.2369C114.19 30.2369 114.882 29.6739 115.316 29.0149H115.38V29.9799H117.181V25.1869C117.181 22.9669 115.525 21.7289 113.386 21.7289ZM113.161 28.5799C112.55 28.5799 111.697 28.2749 111.697 27.5189C111.697 26.5539 112.758 26.1838 113.675 26.1838C114.495 26.1838 114.881 26.3609 115.38 26.6019C115.235 27.7599 114.238 28.5799 113.161 28.5799ZM123.743 22.0019L121.604 27.4219H121.54L119.321 22.0019H117.311L120.64 29.5769L118.742 33.7909H120.688L125.819 22.0019H123.744H123.743ZM106.936 29.9999H108.802V17.4989H106.936V29.9999Z" fill="white"/>
<path d="M20.7169 19.4238L10.0699 30.7238C10.0699 30.7238 10.0709 30.7288 10.0719 30.7308C10.3989 31.9578 11.5189 32.8608 12.8489 32.8608C13.3799 32.8608 13.8799 32.7168 14.3079 32.4648L14.3419 32.4448L26.3259 25.5298L20.7169 19.4238Z" fill="#EA4335"/>
<path d="M31.4879 17.4992L31.4779 17.4922L26.3039 14.4922L20.4749 19.6792L26.3239 25.5272L31.4699 22.5582C32.3719 22.0712 32.9849 21.1202 32.9849 20.0232C32.9849 18.9332 32.3809 17.9872 31.4869 17.4982L31.4879 17.4992Z" fill="#FBBC04"/>
<path d="M10.0699 9.27637C10.0059 9.51237 9.97192 9.76037 9.97192 10.0164V29.9844C9.97192 30.2404 10.0049 30.4884 10.0699 30.7234L21.0829 19.7124L10.0699 9.27637Z" fill="#4285F4"/>
<path d="M20.7959 20.0006L26.3059 14.4916L14.3359 7.55162C13.9009 7.29062 13.3929 7.14062 12.8499 7.14062C11.5199 7.14062 10.3979 8.04562 10.0709 9.27462V9.27762L20.7969 20.0016L20.7959 20.0006Z" fill="#34A853"/>
</g>
<defs>
<clipPath id="clip0_186_466">
<rect width="135" height="40" fill="white"/>
</clipPath>
</defs>
</svg>
